# xmcd
#
# Track frame offsets:
# 150
# 14086
# 30195
# 47251
# 63486
# 78019
# 96679
# 109451
# 127064
# 140937
# 158046
# 173661
# 189049
# 201788
# 217713
# 234452
# 253845
# 271816
# 286836
# 303338
#
# Disc length: 4244 seconds
#
# Revision: 0
# Processed by: cddbd v1.5PL3 Copyright (c) Steve Scherf et al.
# Submitted via: plextools 2.11
#
DISCID=13109214
DTITLE=Sean Kenny and Nadine Sommers - Line Dance Crazy 3 Disk 2(2)
DYEAR=1900
DGENRE=Line Dance
TTITLE0=Sean Kenny and Nadine Sommers - Thats My Story
TTITLE1=Sean Kenny and Nadine Sommers - The Party Aint Over Yet
TTITLE2=Sean Kenny and Nadine Sommers - Nobody Knows
TTITLE3=Sean Kenny and Nadine Sommers - Write This Down
TTITLE4=Sean Kenny and Nadine Sommers - Every Little Thing
TTITLE5=Sean Kenny and Nadine Sommers - 455 Rocket
TTITLE6=Sean Kenny and Nadine Sommers - Whats Your Poison
TTITLE7=Sean Kenny and Nadine Sommers - My Kind Of woman/My Kind Of Man
TTITLE8=Sean Kenny and Nadine Sommers - High On Love
TTITLE9=Sean Kenny and Nadine Sommers - Just To See You Smile
TTITLE10=Sean Kenny and Nadine Sommers - Seventeen
TTITLE11=Sean Kenny and Nadine Sommers - When Love Starts Talking
TTITLE12=Sean Kenny and Nadine Sommers - Seven Nights To Rock
TTITLE13=Sean Kenny and Nadine Sommers - Meanwhile
TTITLE14=Sean Kenny and Nadine Sommers - Believe Me Baby I Lied
TTITLE15=Sean Kenny and Nadine Sommers - Live, Laugh, Love
TTITLE16=Sean Kenny and Nadine Sommers - She Thinks My Tractor's Sexy
TTITLE17=Sean Kenny and Nadine Sommers - Single White Female
TTITLE18=Sean Kenny and Nadine Sommers - Its A Love Thing
TTITLE19=Sean Kenny and Nadine Sommers - Bye Bye
EXTD=
EXTT0=
EXTT1=
EXTT2=
EXTT3=
EXTT4=
EXTT5=
EXTT6=
EXTT7=
EXTT8=
EXTT9=
EXTT10=
EXTT11=
EXTT12=
EXTT13=
EXTT14=
EXTT15=
EXTT16=
EXTT17=
EXTT18=
EXTT19=
PLAYORDER=
